<svg version="1.1" xmlns="http://www.w3.org/2000/svg" xmlns:xlink="http://www.w3.org/1999/xlink" width="167.5" height="167.5" viewBox="0,0,167.5,167.5"><g transform="translate(-157.79633,-96.25)"><g data-paper-data="{&quot;isPaintingLayer&quot;:true}" fill-rule="nonzero" stroke-linecap="butt" stroke-linejoin="miter" stroke-miterlimit="10" stroke-dasharray="" stroke-dashoffset="0" style="mix-blend-mode: normal"><path d="M161.54633,260v-160h160v160z" fill="#ffffff" stroke="#000000" stroke-width="7.5"/><path d="M174.64748,147.18528h69.28328l-35.03529,37.95182z" fill="#ff0000" stroke="none" stroke-width="0"/><path d="M211.07866,143.18367c0,11.40045 -38.13779,11.40045 -38.13779,0c0,-11.40045 8.53743,-20.64234 19.06889,-20.64234c10.53146,0 19.06889,9.24188 19.06889,20.64234z" fill="#ff0000" stroke="none" stroke-width="0"/><path d="M244.8149,143.91682c0,11.40045 -38.13779,11.40045 -38.13779,0c0,-11.40045 8.53744,-20.64232 19.06889,-20.64232c10.53146,0 19.06889,9.24189 19.06889,20.64232z" fill="#ff0000" stroke="none" stroke-width="0"/><text transform="translate(244.48309,175.43235) scale(1.45596,1.45596)" font-size="40" xml:space="preserve" fill="#000000" fill-rule="nonzero" stroke="none" stroke-width="1" stroke-linecap="butt" stroke-linejoin="miter" stroke-miterlimit="10" stroke-dasharray="" stroke-dashoffset="0" font-family="Sans Serif" font-weight="normal" text-anchor="start" style="mix-blend-mode: normal"><tspan x="0" dy="0">+4</tspan></text><text transform="translate(172.76329,243.07941) scale(0.88239,0.88239)" font-size="40" xml:space="preserve" fill="#000000" fill-rule="nonzero" stroke="none" stroke-width="1" stroke-linecap="butt" stroke-linejoin="miter" stroke-miterlimit="10" stroke-dasharray="" stroke-dashoffset="0" font-family="Sans Serif" font-weight="normal" text-anchor="start" style="mix-blend-mode: normal"><tspan x="0" dy="0">+4 serce</tspan></text><path d="M158.45367,206.31471v-5.14706h162.5v5.14706z" fill="#000000" stroke="none" stroke-width="0"/></g></g></svg>